<svg width="22" height="26" viewBox="0 0 22 26" fill="none" xmlns="http://www.w3.org/2000/svg">
<path d="M17.9159 13.4753C17.9045 11.386 18.8495 9.80904 20.7624 8.64767C19.6921 7.11625 18.0753 6.27369 15.9404 6.10859C13.9194 5.94918 11.7105 7.28704 10.9021 7.28704C10.0481 7.28704 8.08975 6.16552 6.55264 6.16552C3.37595 6.21676 0 8.6989 0 13.7486C0 15.2402 0.273264 16.7811 0.819792 18.3713C1.5485 20.4606 4.17866 25.5843 6.92269 25.4989C8.35732 25.4648 9.37068 24.4799 11.238 24.4799C13.0484 24.4799 13.9877 25.4989 15.5874 25.4989C18.3542 25.4591 20.7339 20.8022 21.4285 18.7072C17.7166 16.9594 17.9159 13.5835 17.9159 13.4753ZM14.6936 4.12742C16.2478 2.28289 16.1055 0.603458 16.06 0C14.6879 0.079702 13.0996 0.933652 12.1944 1.98686C11.1981 3.11407 10.6118 4.50886 10.737 6.08012C12.2229 6.19398 13.5778 5.43112 14.6936 4.12742Z" fill="black"/>
</svg>
