<svg width="50" height="50" viewBox="0 0 50 50" fill="none" xmlns="http://www.w3.org/2000/svg">
<path d="M16.7964 36.0142H31.0054C30.924 35.8758 30.8467 35.7293 30.7734 35.5747C30.7002 35.4282 30.6392 35.2736 30.5903 35.1108H16.7964C16.0151 35.1108 15.4211 34.9115 15.0142 34.5127C14.6154 34.1139 14.416 33.5199 14.416 32.7305V22.0249C14.416 21.2437 14.6154 20.6536 15.0142 20.2549C15.4211 19.848 16.0151 19.6445 16.7964 19.6445H34.1914C34.9564 19.6445 35.5423 19.848 35.9492 20.2549C36.3643 20.6536 36.5718 21.2437 36.5718 22.0249V25.5771C36.6938 25.5771 36.7915 25.5771 36.8647 25.5771C36.938 25.569 37.0112 25.5649 37.0845 25.5649C37.1414 25.5649 37.2025 25.5649 37.2676 25.5649C37.3408 25.5649 37.41 25.569 37.4751 25.5771V17.6914C37.4751 16.6253 37.1984 15.8115 36.645 15.25C36.0916 14.6885 35.2738 14.4077 34.1914 14.4077H16.7964C15.7222 14.4077 14.9043 14.6844 14.3428 15.2378C13.7894 15.7912 13.5127 16.609 13.5127 17.6914V32.7427C13.5127 33.8169 13.7894 34.6307 14.3428 35.1841C14.9043 35.7375 15.7222 36.0142 16.7964 36.0142ZM23.0098 23.917H23.73C23.8927 23.917 23.9945 23.8966 24.0352 23.856C24.084 23.8071 24.1084 23.7054 24.1084 23.5508V22.8428C24.1084 22.68 24.084 22.5783 24.0352 22.5376C23.9945 22.4888 23.8927 22.4644 23.73 22.4644H23.0098C22.847 22.4644 22.7412 22.4888 22.6924 22.5376C22.6517 22.5783 22.6313 22.68 22.6313 22.8428V23.5508C22.6313 23.7054 22.6517 23.8071 22.6924 23.856C22.7412 23.8966 22.847 23.917 23.0098 23.917ZM27.27 23.917H27.978C28.1408 23.917 28.2425 23.8966 28.2832 23.856C28.332 23.8071 28.3564 23.7054 28.3564 23.5508V22.8428C28.3564 22.68 28.332 22.5783 28.2832 22.5376C28.2425 22.4888 28.1408 22.4644 27.978 22.4644H27.27C27.0991 22.4644 26.9933 22.4888 26.9526 22.5376C26.9119 22.5783 26.8916 22.68 26.8916 22.8428V23.5508C26.8916 23.7054 26.9119 23.8071 26.9526 23.856C26.9933 23.8966 27.0991 23.917 27.27 23.917ZM31.5181 23.917H32.2383C32.3929 23.917 32.4906 23.8966 32.5312 23.856C32.5801 23.8071 32.6045 23.7054 32.6045 23.5508V22.8428C32.6045 22.68 32.5801 22.5783 32.5312 22.5376C32.4906 22.4888 32.3929 22.4644 32.2383 22.4644H31.5181C31.3472 22.4644 31.2414 22.4888 31.2007 22.5376C31.16 22.5783 31.1396 22.68 31.1396 22.8428V23.5508C31.1396 23.7054 31.16 23.8071 31.2007 23.856C31.2414 23.8966 31.3472 23.917 31.5181 23.917ZM18.7617 28.104H19.4819C19.6366 28.104 19.7383 28.0837 19.7871 28.043C19.8359 27.9941 19.8604 27.8924 19.8604 27.7378V27.0176C19.8604 26.863 19.8359 26.7653 19.7871 26.7246C19.7383 26.6839 19.6366 26.6636 19.4819 26.6636H18.7617C18.599 26.6636 18.4932 26.6839 18.4443 26.7246C18.4036 26.7653 18.3833 26.863 18.3833 27.0176V27.7378C18.3833 27.8924 18.4036 27.9941 18.4443 28.043C18.4932 28.0837 18.599 28.104 18.7617 28.104ZM23.0098 28.104H23.73C23.8927 28.104 23.9945 28.0837 24.0352 28.043C24.084 27.9941 24.1084 27.8924 24.1084 27.7378V27.0176C24.1084 26.863 24.084 26.7653 24.0352 26.7246C23.9945 26.6839 23.8927 26.6636 23.73 26.6636H23.0098C22.847 26.6636 22.7412 26.6839 22.6924 26.7246C22.6517 26.7653 22.6313 26.863 22.6313 27.0176V27.7378C22.6313 27.8924 22.6517 27.9941 22.6924 28.043C22.7412 28.0837 22.847 28.104 23.0098 28.104ZM27.27 28.104H27.978C28.1408 28.104 28.2425 28.0837 28.2832 28.043C28.332 27.9941 28.3564 27.8924 28.3564 27.7378V27.0176C28.3564 26.863 28.332 26.7653 28.2832 26.7246C28.2425 26.6839 28.1408 26.6636 27.978 26.6636H27.27C27.0991 26.6636 26.9933 26.6839 26.9526 26.7246C26.9119 26.7653 26.8916 26.863 26.8916 27.0176V27.7378C26.8916 27.8924 26.9119 27.9941 26.9526 28.043C26.9933 28.0837 27.0991 28.104 27.27 28.104ZM18.7617 32.291H19.4819C19.6366 32.291 19.7383 32.2707 19.7871 32.23C19.8359 32.1812 19.8604 32.0794 19.8604 31.9248V31.2046C19.8604 31.05 19.8359 30.9523 19.7871 30.9116C19.7383 30.8709 19.6366 30.8506 19.4819 30.8506H18.7617C18.599 30.8506 18.4932 30.8709 18.4443 30.9116C18.4036 30.9523 18.3833 31.05 18.3833 31.2046V31.9248C18.3833 32.0794 18.4036 32.1812 18.4443 32.23C18.4932 32.2707 18.599 32.291 18.7617 32.291ZM23.0098 32.291H23.73C23.8927 32.291 23.9945 32.2707 24.0352 32.23C24.084 32.1812 24.1084 32.0794 24.1084 31.9248V31.2046C24.1084 31.05 24.084 30.9523 24.0352 30.9116C23.9945 30.8709 23.8927 30.8506 23.73 30.8506H23.0098C22.847 30.8506 22.7412 30.8709 22.6924 30.9116C22.6517 30.9523 22.6313 31.05 22.6313 31.2046V31.9248C22.6313 32.0794 22.6517 32.1812 22.6924 32.23C22.7412 32.2707 22.847 32.291 23.0098 32.291ZM27.27 32.291H27.978C28.1408 32.291 28.2425 32.2707 28.2832 32.23C28.332 32.1812 28.3564 32.0794 28.3564 31.9248V31.2046C28.3564 31.05 28.332 30.9523 28.2832 30.9116C28.2425 30.8709 28.1408 30.8506 27.978 30.8506H27.27C27.0991 30.8506 26.9933 30.8709 26.9526 30.9116C26.9119 30.9523 26.8916 31.05 26.8916 31.2046V31.9248C26.8916 32.0794 26.9119 32.1812 26.9526 32.23C26.9933 32.2707 27.0991 32.291 27.27 32.291ZM37.0601 38.4189C37.8576 38.4189 38.6104 38.2643 39.3184 37.9551C40.0345 37.6458 40.6652 37.2186 41.2104 36.6733C41.7557 36.1362 42.1789 35.5096 42.48 34.7935C42.7892 34.0854 42.9438 33.3286 42.9438 32.5229C42.9438 31.7091 42.7892 30.9482 42.48 30.2402C42.1789 29.5322 41.7557 28.9097 41.2104 28.3726C40.6733 27.8273 40.0508 27.4001 39.3428 27.0908C38.6348 26.7816 37.8739 26.627 37.0601 26.627C36.2544 26.627 35.4935 26.7816 34.7773 27.0908C34.0693 27.4001 33.4427 27.8273 32.8975 28.3726C32.3604 28.9178 31.9372 29.5444 31.6279 30.2524C31.3187 30.9604 31.1641 31.7173 31.1641 32.5229C31.1641 33.3286 31.3187 34.0854 31.6279 34.7935C31.9372 35.5096 32.3604 36.1362 32.8975 36.6733C33.4427 37.2186 34.0693 37.6458 34.7773 37.9551C35.4935 38.2643 36.2544 38.4189 37.0601 38.4189ZM37.0356 36.3193C36.8729 36.3193 36.7467 36.2705 36.6572 36.1729C36.5677 36.0752 36.5229 35.9531 36.5229 35.8066V33.0479H33.7642C33.6177 33.0479 33.4915 33.0031 33.3857 32.9136C33.2881 32.8159 33.2393 32.6857 33.2393 32.5229C33.2393 32.3602 33.2881 32.234 33.3857 32.1445C33.4915 32.0469 33.6177 31.998 33.7642 31.998H36.5229V29.2515C36.5229 29.1131 36.5677 28.991 36.6572 28.8853C36.7467 28.7795 36.8729 28.7266 37.0356 28.7266C37.2065 28.7266 37.3368 28.7795 37.4263 28.8853C37.5239 28.991 37.5728 29.1131 37.5728 29.2515V31.998H40.3071C40.4618 31.998 40.5879 32.0469 40.6855 32.1445C40.7832 32.234 40.832 32.3602 40.832 32.5229C40.832 32.6857 40.7832 32.8159 40.6855 32.9136C40.5879 33.0031 40.4618 33.0479 40.3071 33.0479H37.5728V35.8066C37.5728 35.9531 37.5239 36.0752 37.4263 36.1729C37.3368 36.2705 37.2065 36.3193 37.0356 36.3193Z" fill="#7A64FF"/>
</svg>
