<svg width="26" height="26" viewBox="0 0 26 26" fill="none" xmlns="http://www.w3.org/2000/svg">
<path d="M23.1684 10.6692H22.3126V10.6251H12.75V14.8751H18.7548C17.8787 17.3491 15.5248 19.1251 12.75 19.1251C9.22943 19.1251 6.37501 16.2707 6.37501 12.7501C6.37501 9.22947 9.22943 6.37506 12.75 6.37506C14.3751 6.37506 15.8536 6.98812 16.9793 7.98953L19.9846 4.98424C18.087 3.21571 15.5487 2.12505 12.75 2.12505C6.88236 2.12505 2.125 6.8824 2.125 12.7501C2.125 18.6178 6.88236 23.3751 12.75 23.3751C18.6177 23.3751 23.3751 18.6178 23.3751 12.7501C23.3751 12.0377 23.3018 11.3423 23.1684 10.6692Z" fill="#FFC107"/>
<path d="M3.3501 7.80466L6.84095 10.3648C7.78552 8.02619 10.0731 6.37506 12.7501 6.37506C14.3752 6.37506 15.8536 6.98812 16.9794 7.98953L19.9847 4.98424C18.087 3.21571 15.5487 2.12505 12.7501 2.12505C8.66899 2.12505 5.12979 4.42908 3.3501 7.80466Z" fill="#FF3D00"/>
<path d="M12.75 23.3752C15.4944 23.3752 17.9881 22.3249 19.8735 20.6169L16.5851 17.8342C15.5183 18.6422 14.1923 19.1252 12.75 19.1252C9.98638 19.1252 7.63984 17.363 6.75584 14.9038L3.29102 17.5734C5.04946 21.0143 8.62053 23.3752 12.75 23.3752Z" fill="#4CAF50"/>
<path d="M23.1684 10.6692H22.3125V10.6251H12.75V14.8751H18.7547C18.334 16.0635 17.5695 17.0883 16.5835 17.8347L16.5851 17.8337L19.8736 20.6164C19.6409 20.8278 23.375 18.0626 23.375 12.7501C23.375 12.0377 23.3017 11.3423 23.1684 10.6692Z" fill="#1976D2"/>
</svg>
