<svg width="319" height="195" viewBox="0 0 319 195" fill="none" xmlns="http://www.w3.org/2000/svg">
<path d="M67.1827 15.2791C62.0556 8.40366 55.1182 3.51464 47.36 1.30943C39.6017 -0.895779 31.419 -0.304532 23.9789 2.99883C16.5389 6.30219 10.2216 12.1489 5.9282 19.7051C1.63478 27.2612 -0.415464 36.1407 0.0699236 45.0771C0.555312 54.0134 3.55154 62.5501 8.63121 69.4694C13.7109 76.3886 20.6145 81.3371 28.3574 83.6089C36.1002 85.8807 44.2868 85.3598 51.7493 82.1205C59.2118 78.8811 65.5691 73.0888 69.9143 65.5698L52.3803 52.895C50.4224 56.283 47.5578 58.893 44.1953 60.3526C40.8328 61.8122 37.144 62.0469 33.6551 61.0233C30.1663 59.9996 27.0556 57.7699 24.7667 54.6521C22.4779 51.5344 21.1278 47.6878 20.9091 43.6612C20.6904 39.6346 21.6142 35.6335 23.5488 32.2288C25.4833 28.8241 28.3298 26.1896 31.6823 24.7012C35.0347 23.2127 38.7217 22.9463 42.2175 23.9399C45.7133 24.9336 48.8392 27.1365 51.1494 30.2345L67.1827 15.2791Z" fill="#FDFDFD"/>
<path d="M270.183 108.279C265.056 101.404 258.118 96.5146 250.36 94.3094C242.602 92.1042 234.419 92.6955 226.979 95.9988C219.539 99.3022 213.222 105.149 208.928 112.705C204.635 120.261 202.585 129.141 203.07 138.077C203.555 147.013 206.552 155.55 211.631 162.469C216.711 169.389 223.615 174.337 231.357 176.609C239.1 178.881 247.287 178.36 254.749 175.12C262.212 171.881 268.569 166.089 272.914 158.57L257.238 147.238C255.027 151.063 251.792 154.01 247.995 155.658C244.199 157.307 240.033 157.572 236.094 156.416C232.154 155.26 228.642 152.742 226.058 149.222C223.473 145.701 221.949 141.358 221.702 136.811C221.455 132.264 222.498 127.747 224.682 123.902C226.867 120.058 230.081 117.083 233.866 115.402C237.652 113.722 241.815 113.421 245.762 114.543C249.71 115.665 253.239 118.152 255.848 121.65L270.183 108.279Z" fill="#FDFDFD"/>
<path d="M116 59.5C116 71.3741 107.046 81 96 81C84.9543 81 76 71.3741 76 59.5C76 47.6259 84.9543 38 96 38C107.046 38 116 47.6259 116 59.5ZM89.9361 59.5C89.9361 63.1002 92.651 66.0187 96 66.0187C99.349 66.0187 102.064 63.1002 102.064 59.5C102.064 55.8998 99.349 52.9813 96 52.9813C92.651 52.9813 89.9361 55.8998 89.9361 59.5Z" fill="#FDFDFD"/>
<path d="M319 156.5C319 168.374 310.046 178 299 178C287.954 178 279 168.374 279 156.5C279 144.626 287.954 135 299 135C310.046 135 319 144.626 319 156.5ZM292.936 156.5C292.936 160.1 295.651 163.019 299 163.019C302.349 163.019 305.064 160.1 305.064 156.5C305.064 152.9 302.349 149.981 299 149.981C295.651 149.981 292.936 152.9 292.936 156.5Z" fill="#FDFDFD"/>
<path d="M196.5 41C203.263 41 209.749 43.2652 214.531 47.2972C219.313 51.3292 222 56.7978 222 62.5C222 68.2022 219.313 73.6708 214.531 77.7028C209.749 81.7348 203.263 84 196.5 84L196.5 71.9729C199.48 71.9729 202.338 70.9749 204.445 69.1984C206.552 67.4219 207.735 65.0124 207.735 62.5C207.735 59.9876 206.552 57.5781 204.445 55.8016C202.338 54.0251 199.48 53.0271 196.5 53.0271V41Z" fill="#FDFDFD"/>
<rect x="105" y="60" width="11" height="25" fill="#FDFDFD"/>
<rect x="122" y="54" width="11" height="30" fill="#FDFDFD"/>
<rect x="285" y="49" width="8" height="14" rx="1" transform="rotate(-90 285 49)" fill="#FDFDFD"/>
<rect x="285" y="66" width="8" height="4" transform="rotate(-90 285 66)" fill="#FDFDFD"/>
<rect x="274" y="83" width="8" height="17" rx="1" transform="rotate(-90 274 83)" fill="#FDFDFD"/>
<rect x="145" y="54" width="11" height="30" fill="#FDFDFD"/>
<rect x="228" y="41" width="11" height="25" fill="#FDFDFD"/>
<rect x="256" y="41" width="11" height="25" fill="#FDFDFD"/>
<rect x="167" y="54" width="10" height="30" fill="#FDFDFD"/>
<rect x="183" y="41" width="14" height="78" rx="1" fill="#FDFDFD"/>
<rect x="257" y="139" width="16" height="39" rx="1" fill="#FDFDFD"/>
<path d="M156 54C156 52.2928 155.56 50.6023 154.706 49.0251C153.852 47.4479 152.599 46.0148 151.021 44.8076C149.442 43.6005 147.568 42.6429 145.506 41.9896C143.443 41.3363 141.232 41 139 41C136.768 41 134.557 41.3363 132.494 41.9896C130.432 42.6429 128.558 43.6005 126.979 44.8076C125.401 46.0148 124.148 47.4479 123.294 49.0251C122.44 50.6023 122 52.2928 122 54L133.042 54C133.042 53.4016 133.196 52.8091 133.495 52.2563C133.795 51.7035 134.233 51.2012 134.787 50.7781C135.34 50.355 135.997 50.0194 136.72 49.7904C137.443 49.5614 138.218 49.4436 139 49.4436C139.782 49.4436 140.557 49.5614 141.28 49.7904C142.003 50.0194 142.66 50.355 143.213 50.7781C143.767 51.2012 144.205 51.7035 144.505 52.2563C144.804 52.8091 144.958 53.4016 144.958 54H156Z" fill="#FDFDFD"/>
<path d="M286 41C282.552 41 279.246 42.317 276.808 44.6612C274.37 47.0054 273 50.1848 273 53.5C273 56.8152 274.37 59.9946 276.808 62.3388C279.246 64.683 282.552 66 286 66L286 57.9863C284.763 57.9863 283.576 57.5136 282.701 56.6723C281.826 55.8309 281.334 54.6898 281.334 53.5C281.334 52.3102 281.826 51.1691 282.701 50.3277C283.576 49.4864 284.763 49.0137 286 49.0137L286 41Z" fill="#FDFDFD"/>
<path d="M288.5 83C290.273 83 292.028 82.6767 293.666 82.0485C295.304 81.4203 296.792 80.4996 298.046 79.3388C299.3 78.1781 300.294 76.8001 300.972 75.2835C301.651 73.767 302 72.1415 302 70.5C302 68.8585 301.651 67.233 300.972 65.7165C300.294 64.1999 299.3 62.8219 298.046 61.6612C296.792 60.5004 295.304 59.5797 293.666 58.9515C292.028 58.3233 290.273 58 288.5 58L288.5 66.015C289.136 66.015 289.766 66.131 290.354 66.3564C290.941 66.5818 291.475 66.9121 291.925 67.3286C292.375 67.7451 292.732 68.2395 292.975 68.7837C293.219 69.3278 293.344 69.911 293.344 70.5C293.344 71.089 293.219 71.6722 292.975 72.2163C292.732 72.7605 292.375 73.2549 291.925 73.6714C291.475 74.0879 290.941 74.4182 290.354 74.6436C289.766 74.869 289.136 74.985 288.5 74.985L288.5 83Z" fill="#FDFDFD"/>
<path d="M177 54C177 52.2928 176.599 50.6023 175.82 49.0251C175.041 47.4479 173.899 46.0148 172.46 44.8076C171.021 43.6005 169.312 42.6429 167.432 41.9896C165.551 41.3363 163.535 41 161.5 41C159.465 41 157.449 41.3363 155.568 41.9896C153.688 42.6429 151.979 43.6005 150.54 44.8076C149.101 46.0148 147.959 47.4479 147.18 49.0251C146.401 50.6023 146 52.2928 146 54L156.002 54C156.002 53.3944 156.144 52.7948 156.42 52.2354C156.697 51.6759 157.102 51.1675 157.612 50.7394C158.123 50.3112 158.729 49.9715 159.396 49.7398C160.063 49.508 160.778 49.3888 161.5 49.3888C162.222 49.3888 162.937 49.508 163.604 49.7398C164.271 49.9715 164.877 50.3112 165.388 50.7394C165.898 51.1675 166.303 51.6759 166.58 52.2354C166.856 52.7948 166.998 53.3944 166.998 54H177Z" fill="#FDFDFD"/>
<path d="M228 65.5C228 67.9295 228.504 70.3351 229.484 72.5796C230.464 74.8242 231.901 76.8636 233.711 78.5815C235.522 80.2994 237.672 81.6621 240.038 82.5918C242.404 83.5215 244.939 84 247.5 84C250.061 84 252.596 83.5215 254.962 82.5918C257.328 81.6621 259.478 80.2994 261.289 78.5815C263.099 76.8636 264.536 74.8242 265.516 72.5796C266.496 70.3351 267 67.9295 267 65.5L256.003 65.5C256.003 66.5594 255.783 67.6083 255.356 68.5871C254.928 69.5658 254.302 70.4551 253.512 71.2041C252.723 71.9532 251.786 72.5474 250.754 72.9528C249.722 73.3582 248.617 73.5669 247.5 73.5669C246.383 73.5669 245.278 73.3582 244.246 72.9528C243.214 72.5474 242.277 71.9532 241.488 71.2041C240.698 70.4551 240.072 69.5658 239.644 68.5871C239.217 67.6083 238.997 66.5594 238.997 65.5L228 65.5Z" fill="#FDFDFD"/>
<circle cx="299" cy="189" r="6" fill="#FDFDFD"/>
</svg>
