<svg width="70" height="70" viewBox="0 0 70 70" fill="none" xmlns="http://www.w3.org/2000/svg">
<circle cx="35" cy="35" r="25" fill="white"/>
<path d="M21.6667 34.5428C21.6667 33.91 22.137 33.387 22.7471 33.3043L22.9167 33.2928H47.9167C48.6071 33.2928 49.1667 33.8525 49.1667 34.5428C49.1667 35.1757 48.6965 35.6987 48.0864 35.7814L47.9167 35.7928H22.9167C22.2264 35.7928 21.6667 35.2332 21.6667 34.5428Z" fill="black"/>
<path d="M36.9518 25.3879C36.4626 24.9008 36.4609 24.1094 36.948 23.6202C37.3908 23.1755 38.0851 23.1336 38.5753 23.4957L38.7157 23.6164L48.7991 33.6564C49.2451 34.1005 49.2857 34.7974 48.9208 35.2875L48.7991 35.4279L38.7158 45.4695C38.2266 45.9567 37.4352 45.955 36.948 45.4659C36.5052 45.0212 36.4663 44.3267 36.8304 43.8381L36.9517 43.6981L46.1451 34.5417L36.9518 25.3879Z" fill="black"/>
<path d="M70 35C70 54.33 54.33 70 35 70C15.67 70 0 54.33 0 35C0 15.67 15.67 0 35 0C54.33 0 70 15.67 70 35ZM5.31941 35C5.31941 51.3921 18.6079 64.6806 35 64.6806C51.3921 64.6806 64.6806 51.3921 64.6806 35C64.6806 18.6079 51.3921 5.31941 35 5.31941C18.6079 5.31941 5.31941 18.6079 5.31941 35Z" fill="white"/>
</svg>
