<svg width="27" height="27" viewBox="0 0 27 27" fill="none" xmlns="http://www.w3.org/2000/svg">
<g clip-path="url(#clip0_7_268)">
<path d="M10.9308 21.7431L4.70401 13.7402C4.5425 13.5329 4.42343 13.2958 4.35363 13.0424C4.28383 12.789 4.26465 12.5243 4.2972 12.2635C4.32976 12.0027 4.41339 11.7509 4.54334 11.5224C4.67328 11.2939 4.84698 11.0933 5.05451 10.932L14.6323 3.47081L24.5553 4.70932L23.3168 14.6323L13.7291 22.0923C13.3111 22.4155 12.7822 22.5602 12.2579 22.4948C11.7336 22.4294 11.2565 22.1591 10.9308 21.7431V21.7431Z" stroke="#7A64FF" stroke-width="2" stroke-linecap="round" stroke-linejoin="round"/>
<path d="M18.9746 9.05157L18.9733 9.0615" stroke="#5C5C5C" stroke-width="2" stroke-linecap="round" stroke-linejoin="round"/>
</g>
<defs>
<clipPath id="clip0_7_268">
<rect width="24" height="24" fill="white" transform="translate(26.7876 2.97243) rotate(97.1144)"/>
</clipPath>
</defs>
</svg>
