<svg width="19" height="20" viewBox="0 0 19 20" fill="none" xmlns="http://www.w3.org/2000/svg">
<g clip-path="url(#clip0_13_239)">
<path d="M7.37089 16.635L3.2197 11.019C3.11202 10.8735 3.03265 10.7071 2.98611 10.5293C2.93958 10.3514 2.92679 10.1657 2.9485 9.98269C2.9702 9.79967 3.02596 9.62294 3.11258 9.46262C3.19921 9.3023 3.31501 9.16152 3.45337 9.04834L9.83858 3.81239L16.4539 4.68152L15.6282 11.645L9.23642 16.8801C8.95777 17.1069 8.60517 17.2085 8.25563 17.1626C7.9061 17.1166 7.58803 16.927 7.37089 16.635Z" fill="white"/>
<path d="M12.983 7.28186L12.9822 7.28851" stroke="#5C5C5C" stroke-width="2" stroke-linecap="round" stroke-linejoin="round"/>
<ellipse cx="1.00163" cy="1.05108" rx="1.00163" ry="1.05108" transform="matrix(0.998372 6.2305e-09 1.32464e-10 -1.00148 12.1917 8.62976)" fill="#27BD6D"/>
</g>
<defs>
<clipPath id="clip0_13_239">
<rect width="16.8295" height="16.0133" fill="white" transform="matrix(-0.117746 0.993044 -0.99148 -0.130261 18.1917 3.01575)"/>
</clipPath>
</defs>
</svg>
